<svg width="360" height="360" viewBox="0 0 360 360" fill="none" xmlns="http://www.w3.org/2000/svg">
<rect width="360" height="360" fill="#0000CC"/>
<path d="M262.792 40.4H286.768C306.748 40.4 319.624 54.164 319.624 76.956V107.444C319.624 130.236 306.748 144 286.768 144H274.04C273.3 144 272.856 143.556 272.856 142.816C272.856 142.076 273.3 141.632 274.04 141.632H286.768C305.268 141.632 317.256 128.756 317.256 107.444V76.956C317.256 55.644 305.268 42.768 286.768 42.768H262.792C261.016 42.768 260.424 43.36 260.424 45.136V139.708C260.424 141.188 260.868 141.632 262.348 141.632H263.532C265.012 141.632 265.456 141.188 265.456 139.708V51.056C265.456 48.836 266.344 47.8 268.712 47.8H286.768C302.16 47.8 312.224 58.752 312.224 76.956V107.444C312.224 125.648 302.16 136.6 286.768 136.6H274.04C273.3 136.6 272.856 136.156 272.856 135.416C272.856 134.676 273.3 134.232 274.04 134.232H286.768C300.68 134.232 309.856 124.168 309.856 107.444V76.956C309.856 60.232 300.68 50.168 286.768 50.168H268.712C268.12 50.168 267.824 50.464 267.824 51.056V139.708C267.824 142.816 266.492 144 263.532 144H262.348C259.388 144 258.056 142.816 258.056 139.708V45.136C258.056 41.88 259.388 40.4 262.792 40.4Z" fill="#00FFFF"/>
<path d="M228.299 142.816V44.692C228.299 41.584 229.631 40.4 232.591 40.4H233.775C236.735 40.4 238.067 41.584 238.067 44.692V142.816C238.067 143.556 237.623 144 236.883 144C236.143 144 235.699 143.556 235.699 142.816V44.692C235.699 43.212 235.255 42.768 233.775 42.768H232.591C231.111 42.768 230.667 43.212 230.667 44.692V142.816C230.667 143.556 230.223 144 229.483 144C228.743 144 228.299 143.556 228.299 142.816Z" fill="#F868E8"/>
<path d="M179.929 119.432H186.589C187.181 119.432 187.477 119.136 187.477 118.544V107.592C187.477 107 187.181 106.704 186.589 106.704H179.485C178.745 106.704 178.301 106.26 178.301 105.52C178.301 104.78 178.745 104.336 179.485 104.336H186.589C188.957 104.336 189.845 105.372 189.845 107.592V118.544C189.845 120.764 188.957 121.8 186.589 121.8H179.929C168.533 121.8 163.353 114.548 163.353 101.524V82.876C163.353 69.852 168.533 62.6 179.929 62.6H206.125C207.605 62.6 208.049 62.156 208.049 60.676V59.492C208.049 58.012 207.605 57.568 206.125 57.568H179.929C165.573 57.568 158.321 66.596 158.321 82.876V101.524C158.321 117.804 165.573 126.832 179.929 126.832H192.509C194.285 126.832 194.877 126.24 194.877 124.464V101.672C194.877 99.896 194.285 99.304 192.509 99.304H182.593C179.485 99.304 178.301 97.972 178.301 95.012V93.828C178.301 90.868 179.485 89.536 182.593 89.536H199.909C203.313 89.536 204.645 91.016 204.645 94.272V131.864C204.645 135.12 203.313 136.6 199.909 136.6H179.929C159.505 136.6 148.553 124.02 148.553 101.524V82.876C148.553 60.38 159.505 47.8 179.929 47.8H206.125C207.605 47.8 208.049 47.356 208.049 45.876V44.692C208.049 43.212 207.605 42.768 206.125 42.768H179.929C156.397 42.768 143.521 57.124 143.521 82.876V101.524C143.521 127.276 156.397 141.632 179.929 141.632H205.533C208.493 141.632 209.677 140.448 209.677 137.488V88.648C209.677 85.688 208.493 84.504 205.533 84.504H179.485C178.745 84.504 178.301 84.06 178.301 83.32C178.301 82.58 178.745 82.136 179.485 82.136H205.533C209.825 82.136 212.045 84.356 212.045 88.648V137.488C212.045 141.78 209.825 144 205.533 144H179.929C154.917 144 141.153 128.756 141.153 101.524V82.876C141.153 55.644 154.917 40.4 179.929 40.4H206.125C209.233 40.4 210.417 41.732 210.417 44.692V45.876C210.417 48.836 209.233 50.168 206.125 50.168H179.929C160.985 50.168 150.921 61.86 150.921 82.876V101.524C150.921 122.54 160.985 134.232 179.929 134.232H199.909C201.685 134.232 202.277 133.64 202.277 131.864V94.272C202.277 92.496 201.685 91.904 199.909 91.904H182.593C181.113 91.904 180.669 92.348 180.669 93.828V95.012C180.669 96.492 181.113 96.936 182.593 96.936H192.509C195.913 96.936 197.245 98.416 197.245 101.672V124.464C197.245 127.72 195.913 129.2 192.509 129.2H179.929C164.093 129.2 155.953 119.284 155.953 101.524V82.876C155.953 65.116 164.093 55.2 179.929 55.2H206.125C209.233 55.2 210.417 56.532 210.417 59.492V60.676C210.417 63.636 209.233 64.968 206.125 64.968H179.929C170.013 64.968 165.721 71.332 165.721 82.876V101.524C165.721 113.068 170.013 119.432 179.929 119.432Z" fill="#0AF477"/>
<path d="M56.9328 144H45.3888C41.0968 144 38.8768 141.78 38.8768 137.488V46.912C38.8768 42.62 41.0968 40.4 45.3888 40.4H63.7408C68.0328 40.4 69.9568 40.992 72.1768 45.432L83.7208 68.224C84.0168 68.816 84.1648 68.964 84.4608 68.964C84.7568 68.964 84.9048 68.816 85.2008 68.224L96.7448 45.432C98.9648 40.992 100.889 40.4 105.181 40.4H123.533C127.825 40.4 130.045 42.62 130.045 46.912V142.816C130.045 143.556 129.601 144 128.861 144C128.121 144 127.677 143.556 127.677 142.816V46.912C127.677 43.952 126.493 42.768 123.533 42.768H105.033C101.629 42.768 100.445 43.508 98.9648 46.468L87.4208 69.26C86.5328 71.036 85.6448 71.776 84.4608 71.776C83.2768 71.776 82.3888 71.036 81.5008 69.26L69.9568 46.468C68.4768 43.508 67.2928 42.768 63.8888 42.768H45.3888C42.4288 42.768 41.2448 43.952 41.2448 46.912V137.488C41.2448 140.448 42.4288 141.632 45.3888 141.632H56.9328C59.8928 141.632 61.0768 140.448 61.0768 137.488V84.652C61.0768 82.728 61.8168 81.692 63.4448 81.692C64.7768 81.692 65.6648 82.284 66.5528 84.06L83.7208 117.952C84.0168 118.544 84.1648 118.692 84.4608 118.692C84.7568 118.692 84.9048 118.544 85.2008 117.952L102.369 84.06C103.257 82.284 104.145 81.692 105.477 81.692C107.105 81.692 107.845 82.728 107.845 84.652V137.488C107.845 140.448 109.029 141.632 111.989 141.632H121.461C122.201 141.632 122.645 142.076 122.645 142.816C122.645 143.556 122.201 144 121.461 144H111.989C107.697 144 105.477 141.78 105.477 137.488V84.948C105.477 84.208 104.885 84.06 104.589 84.8L87.4208 118.988C86.5328 120.764 85.6448 121.504 84.4608 121.504C83.2768 121.504 82.3888 120.764 81.5008 118.988L64.3328 84.8C64.0368 84.06 63.4448 84.208 63.4448 84.948V137.488C63.4448 141.78 61.2248 144 56.9328 144Z" fill="white"/>
<path d="M269.826 146.66C270.726 143.06 270.366 140.18 271.266 136.4C272.886 128.66 282.426 130.46 281.346 137.12C280.806 141.26 279.006 145.76 278.286 148.28C271.626 177.98 265.146 200.84 249.846 222.26C246.246 227.3 239.046 223.52 242.826 217.94C255.966 198.68 264.066 173.3 269.826 146.66ZM290.166 235.76C296.826 235.76 304.926 230.36 314.826 217.94C319.866 211.64 325.266 217.58 321.846 222.26C310.686 237.2 299.526 244.22 289.806 244.22C281.526 244.22 275.946 239.36 275.946 230.18C275.946 212.36 290.166 199.4 290.166 178.88C290.166 176.18 288.726 171.5 281.346 169.16C275.766 167.36 279.006 158.54 284.586 160.7C295.386 164.84 299.166 170.96 299.166 177.98C299.166 197.42 285.126 216.14 285.126 230.54C285.126 234.32 287.106 235.76 290.166 235.76Z" fill="#FFFF00"/>
<path d="M204.282 203.18C203.022 203.18 201.762 203.9 198.702 203.36C192.762 202.28 194.382 194.18 200.322 194.18C201.942 194.18 203.202 194.72 204.642 194.72C216.702 194.72 230.742 188.06 230.742 174.92C230.742 171.5 228.942 168.08 225.162 168.08C205.902 168.08 190.242 192.38 190.242 213.44C190.242 232.52 204.282 234.86 210.762 234.86C219.582 234.86 232.902 230.18 242.802 217.94C247.842 211.64 253.422 217.58 249.822 222.26C238.482 237.2 222.462 243.32 211.122 243.32C197.082 243.32 181.422 236.12 181.422 213.44C181.422 188.24 199.962 159.26 225.522 159.26C237.402 159.26 239.742 170.24 239.742 175.28C239.742 192.38 220.302 203.18 204.282 203.18Z" fill="#FFFF00"/>
<path d="M135.121 206.06L145.921 168.62C147.001 165.02 147.181 161.6 148.261 157.64C150.421 150.44 160.141 153.32 158.341 159.8C157.261 163.94 155.461 167.18 154.381 170.96L143.581 208.4C141.241 216.68 138.901 224.42 138.901 230.54C138.901 233.78 140.881 235.76 143.941 235.76C150.601 235.76 158.881 230.18 168.781 217.94C173.821 211.64 179.401 217.58 175.801 222.26C164.641 237.2 153.481 244.22 143.941 244.22C135.301 244.22 129.181 239 129.181 229.82C129.181 221.72 132.961 213.8 135.121 206.06ZM153.481 139.64C154.381 136.4 156.001 132.26 156.361 129.02C156.901 121.64 168.061 124.52 165.721 130.82C164.281 134.78 163.561 137.3 163.021 141.26C161.761 148.64 151.861 146.3 153.481 139.64Z" fill="#FFFF00"/>
<path d="M83.544 168.98C104.784 168.98 118.284 180.32 118.284 200.84C118.284 222.98 97.404 243.86 71.124 243.86C68.604 243.86 65.544 243.5 63.204 242.78C56.004 240.62 58.884 230.72 65.184 233.24C66.984 233.96 69.324 235.22 72.924 235.22C92.184 235.22 109.284 220.28 109.284 200.48C109.284 186.26 101.904 177.98 83.544 177.62C82.284 177.62 80.664 178.34 79.044 178.34C72.744 178.34 73.104 169.88 78.864 169.16C80.484 168.98 82.104 168.98 83.544 168.98ZM94.524 158.72C100.824 156.02 105.504 148.1 105.864 142.7C106.764 128.12 96.864 121.28 82.824 121.28C74.544 121.28 67.884 123.62 62.664 126.32C60.324 127.58 58.164 129.02 56.364 130.82C52.404 134.6 45.924 129.02 50.604 123.62C53.124 120.74 55.284 119.66 59.064 117.86C66.444 114.62 74.364 112.82 82.464 112.82C102.444 112.82 115.224 123.98 114.144 141.8C113.424 153.5 104.784 164.48 96.684 167.18C91.464 168.8 88.224 161.42 94.524 158.72ZM45.924 221.36L68.244 143.96C69.324 140.36 69.504 136.94 70.584 133.16C72.744 125.78 82.644 128.66 80.844 135.14C79.764 139.28 77.964 142.52 76.884 146.3L54.744 223.7C53.664 227.3 53.484 230.72 52.404 234.68C50.244 241.88 40.344 239 42.144 232.52C43.224 228.38 44.844 225.14 45.924 221.36Z" fill="#FFFF00"/>
<path d="M306.284 273.632V297.586C306.284 299.553 306.206 301.519 306.048 303.486C305.97 305.374 305.773 307.065 305.458 308.56L306.874 308.088C307.346 306.121 307.7 304.194 307.936 302.306C308.251 300.339 308.408 298.176 308.408 295.816V274.812L306.284 273.632ZM312.302 320.242C312.302 319.77 312.342 319.337 312.42 318.944C312.499 318.629 312.538 318.315 312.538 318C312.538 317.528 312.224 317.017 311.594 316.466C311.044 315.837 310.375 315.247 309.588 314.696C308.802 314.145 308.015 313.634 307.228 313.162C306.442 312.69 305.891 312.375 305.576 312.218C304.79 311.825 304.2 311.549 303.806 311.392C303.492 311.235 303.334 310.723 303.334 309.858C303.57 305.374 303.806 301.008 304.042 296.76C304.278 292.512 304.396 288.264 304.396 284.016C304.396 280.555 304.278 276.857 304.042 272.924C303.728 272.452 302.941 272.019 301.682 271.626C300.502 271.154 299.676 270.761 299.204 270.446C298.575 270.21 297.985 270.092 297.434 270.092C297.041 270.092 296.648 270.249 296.254 270.564C295.94 270.8 295.664 270.997 295.428 271.154C295.035 271.547 294.72 271.901 294.484 272.216C294.327 272.452 294.052 272.767 293.658 273.16C293.422 276.936 293.226 280.791 293.068 284.724C292.99 288.657 292.95 292.512 292.95 296.288V304.194C293.265 304.981 293.658 305.689 294.13 306.318C294.602 306.947 295.153 307.537 295.782 308.088C296.018 308.324 296.136 308.481 296.136 308.56C296.136 308.717 296.058 308.875 295.9 309.032C295.35 309.504 294.563 310.212 293.54 311.156C292.518 312.1 291.456 313.083 290.354 314.106C289.253 315.05 288.23 315.955 287.286 316.82C286.342 317.685 285.713 318.275 285.398 318.59L283.392 320.714C283.314 320.714 283.274 320.714 283.274 320.714C283.274 320.793 283.235 320.832 283.156 320.832H282.92C282.291 320.832 281.976 320.557 281.976 320.006C281.976 319.534 282.134 319.062 282.448 318.59C282.763 318.197 282.92 317.685 282.92 317.056C282.92 316.899 282.842 316.741 282.684 316.584C282.606 316.348 282.527 316.23 282.448 316.23C282.212 315.994 281.622 315.522 280.678 314.814C279.734 314.106 279.105 313.634 278.79 313.398C278.161 313.005 277.492 312.572 276.784 312.1C276.076 311.628 275.408 311.392 274.778 311.392C274.385 311.392 274.11 311.431 273.952 311.51C273.638 311.667 273.402 311.746 273.244 311.746C272.772 311.746 272.536 311.392 272.536 310.684C272.536 310.291 272.89 309.897 273.598 309.504C274.306 309.032 274.857 308.599 275.25 308.206C275.801 307.577 276.155 306.829 276.312 305.964C276.548 305.02 276.706 304.155 276.784 303.368C277.02 299.356 277.178 295.305 277.256 291.214C277.335 287.045 277.374 282.875 277.374 278.706C277.374 277.526 277.335 276.307 277.256 275.048C277.256 273.789 277.256 272.57 277.256 271.39C277.099 271.075 276.902 270.8 276.666 270.564C276.43 270.249 276.076 270.092 275.604 270.092C275.211 270.092 274.818 270.21 274.424 270.446C274.031 270.682 273.598 270.8 273.126 270.8C272.576 270.8 272.3 270.564 272.3 270.092C272.3 269.856 272.379 269.659 272.536 269.502C272.772 269.345 272.969 269.187 273.126 269.03C275.644 267.063 278.082 265.018 280.442 262.894C282.802 260.77 285.123 258.567 287.404 256.286L287.758 256.168C287.916 256.168 288.073 256.247 288.23 256.404C288.388 256.483 288.466 256.601 288.466 256.758C288.466 257.151 288.388 257.466 288.23 257.702C288.073 257.938 287.994 258.135 287.994 258.292C287.994 258.921 288.309 259.393 288.938 259.708L293.186 261.95C293.501 262.107 293.737 262.304 293.894 262.54C294.052 262.697 294.13 263.091 294.13 263.72C294.052 264.9 293.973 265.883 293.894 266.67C293.894 267.457 293.894 268.283 293.894 269.148C296.412 267.575 298.929 265.608 301.446 263.248C304.042 260.809 306.166 258.646 307.818 256.758C307.897 256.679 308.015 256.561 308.172 256.404C308.33 256.247 308.487 256.168 308.644 256.168C308.802 256.168 308.959 256.247 309.116 256.404C309.195 256.483 309.274 256.522 309.352 256.522C309.352 256.915 309.313 257.269 309.234 257.584C309.156 257.899 309.116 258.213 309.116 258.528C309.116 259.157 309.313 259.629 309.706 259.944C310.1 260.18 310.572 260.377 311.122 260.534C311.437 260.691 311.909 260.888 312.538 261.124C313.168 261.281 313.836 261.478 314.544 261.714C315.331 261.95 316.039 262.186 316.668 262.422C317.298 262.658 317.77 262.815 318.084 262.894C318.714 263.13 319.343 263.287 319.972 263.366C320.68 263.366 321.349 263.366 321.978 263.366H324.102C324.653 263.366 324.928 263.681 324.928 264.31C324.928 264.546 324.771 264.782 324.456 265.018C324.22 265.175 324.063 265.254 323.984 265.254C323.119 265.569 322.332 266.237 321.624 267.26C321.074 268.125 320.72 268.951 320.562 269.738C320.484 270.525 320.405 271.469 320.326 272.57C319.933 277.369 319.736 282.167 319.736 286.966C319.736 291.765 319.736 296.524 319.736 301.244C319.894 302.345 320.248 303.368 320.798 304.312C321.349 305.256 322.175 305.728 323.276 305.728C323.906 305.728 324.417 305.649 324.81 305.492C325.282 305.335 325.715 305.138 326.108 304.902C326.423 304.745 326.659 304.666 326.816 304.666C327.446 304.666 327.76 304.941 327.76 305.492C327.76 305.728 327.642 305.964 327.406 306.2C325.282 308.324 322.922 310.566 320.326 312.926C317.73 315.207 315.646 317.803 314.072 320.714C314.072 320.714 313.994 320.793 313.836 320.95C313.758 321.029 313.679 321.068 313.6 321.068C313.364 321.068 313.089 320.989 312.774 320.832C312.46 320.675 312.302 320.478 312.302 320.242ZM278.908 271.744V299.828C278.83 301.48 278.712 302.935 278.554 304.194C278.476 305.374 278.24 306.515 277.846 307.616L279.262 307.026C279.892 304.981 280.324 302.857 280.56 300.654C280.875 298.451 281.032 296.524 281.032 294.872V272.924L278.908 271.744ZM284.336 294.99L291.652 289.09L291.77 286.376L284.454 292.276L284.336 294.99ZM284.926 276.346L292.242 270.446V267.85L285.044 273.632L284.926 276.346ZM284.1 304.194L291.416 298.294L291.534 295.58L284.218 301.598L284.1 304.194ZM284.69 285.668L291.888 279.768L292.006 277.172L284.69 283.072V285.668ZM285.162 271.744L292.36 265.962L292.478 263.248L285.162 269.148V271.744ZM283.982 308.678L291.298 302.778L291.416 300.182L284.1 306.082L283.982 308.678ZM284.454 290.152L291.77 284.252L291.888 281.656L284.572 287.556L284.454 290.152ZM284.218 299.592L291.534 293.692L291.652 291.096L284.336 296.996L284.218 299.592ZM284.808 281.066L292.006 275.166L292.124 272.57L284.926 278.47L284.808 281.066ZM285.752 311.746L292.36 306.318L291.298 304.902L284.218 310.684L285.752 311.746ZM285.044 267.614L290.944 262.422L289.174 261.36L283.51 266.316L285.044 267.614ZM288.23 313.752L294.484 308.678L293.422 307.498L286.932 312.69L288.23 313.752ZM282.566 265.372L287.758 260.534L286.224 259.59L281.268 264.31L282.566 265.372ZM317.022 313.516L323.866 307.734L321.978 306.908L315.37 312.336L317.022 313.516ZM302.744 266.552L309.234 261.124L307.11 260.416L300.62 265.844L302.744 266.552ZM313.836 311.274L320.444 305.964L318.91 304.666L312.302 310.212L313.836 311.274ZM311.948 308.56L318.32 303.132C318.32 302.739 318.281 302.345 318.202 301.952C318.202 301.559 318.202 301.165 318.202 300.772L311.948 306.082V308.56ZM311.948 290.388L318.202 285.196C318.202 284.724 318.202 284.291 318.202 283.898C318.202 283.426 318.242 282.993 318.32 282.6L311.948 287.91V290.388ZM306.638 267.732L313.01 262.422L310.886 261.714L304.514 267.142L306.638 267.732ZM311.948 304.076L318.084 298.884V296.406L311.948 301.598V304.076ZM310.414 269.03L316.668 263.72L314.662 263.012L308.408 268.322L310.414 269.03ZM312.066 285.786L318.32 280.476L318.556 277.998L312.302 283.19L312.066 285.786ZM312.538 280.83L318.674 275.638L318.91 273.042L312.892 278.116L312.538 280.83ZM314.426 270.328L320.562 265.136L318.556 264.428L312.42 269.62L314.426 270.328ZM311.948 294.754L318.084 289.562V287.202L311.948 292.394V294.754ZM311.948 299.356L318.084 294.164V291.804L311.948 296.996V299.356ZM313.954 273.042C313.797 273.514 313.64 274.025 313.482 274.576C313.404 275.048 313.325 275.52 313.246 275.992L319.264 270.918C319.422 270.367 319.5 269.856 319.5 269.384C319.579 268.912 319.697 268.479 319.854 268.086L313.954 273.042Z" fill="#0AF477"/>
<path d="M251.859 317.882C251.78 317.803 251.544 317.685 251.151 317.528C250.757 317.292 250.285 317.056 249.735 316.82C249.263 316.584 248.751 316.387 248.201 316.23C247.65 315.994 247.217 315.797 246.903 315.64C245.093 314.932 243.087 314.263 240.885 313.634C238.682 312.926 236.558 312.572 234.513 312.572C233.883 312.572 233.293 312.651 232.743 312.808C232.271 312.965 231.72 313.044 231.091 313.044C230.619 313.044 230.383 312.729 230.383 312.1C231.091 311.156 231.641 310.291 232.035 309.504C232.428 308.717 232.703 307.931 232.861 307.144C233.018 306.279 233.097 305.413 233.097 304.548C233.175 303.604 233.254 302.581 233.333 301.48C233.411 299.985 233.451 298.53 233.451 297.114C233.451 295.619 233.451 294.125 233.451 292.63C233.451 287.281 233.333 281.774 233.097 276.11C233.097 275.087 232.782 274.576 232.153 274.576C231.995 274.576 231.759 274.655 231.445 274.812C231.209 274.969 231.012 275.048 230.855 275.048H230.383C230.147 275.048 229.989 274.93 229.911 274.694C229.832 274.458 229.793 274.222 229.793 273.986L230.265 273.514C234.198 271.39 238.053 269.109 241.829 266.67C245.605 264.231 248.948 261.36 251.859 258.056C252.095 257.663 252.37 257.191 252.685 256.64C253.078 256.089 253.471 255.814 253.865 255.814C254.573 255.814 254.927 256.05 254.927 256.522C254.927 256.837 254.887 257.112 254.809 257.348C254.809 257.584 254.809 257.899 254.809 258.292C254.809 258.607 254.809 258.764 254.809 258.764C254.887 258.764 255.005 258.961 255.163 259.354C257.68 262.422 260.119 265.451 262.479 268.44C264.917 271.429 266.884 274.812 268.379 278.588C268.457 278.824 268.536 279.06 268.615 279.296C268.693 279.453 268.733 279.611 268.733 279.768C268.733 280.083 268.536 280.437 268.143 280.83C264.603 283.898 261.22 287.005 257.995 290.152C254.848 293.299 251.544 296.485 248.083 299.71V301.716C250.836 302.739 253.471 303.683 255.989 304.548C258.585 305.413 261.259 306.279 264.013 307.144C264.406 306.515 264.839 305.807 265.311 305.02C265.783 304.233 266.019 303.407 266.019 302.542C266.019 301.519 265.783 300.615 265.311 299.828C264.917 299.041 264.445 298.255 263.895 297.468C264.052 297.232 264.288 297.114 264.603 297.114C265.625 297.114 266.412 297.665 266.963 298.766C267.513 299.867 267.828 300.969 267.907 302.07C267.907 302.935 267.789 303.761 267.553 304.548C267.395 305.335 267.002 306.043 266.373 306.672C265.114 307.852 263.895 308.993 262.715 310.094C261.613 311.117 260.512 312.179 259.411 313.28C258.388 314.303 257.405 315.443 256.461 316.702C255.595 317.882 254.809 319.219 254.101 320.714C253.943 320.871 253.786 320.95 253.629 320.95C253.471 320.95 253.314 320.95 253.157 320.95H252.803C252.645 320.95 252.567 320.871 252.567 320.714V318.472L251.859 317.882ZM248.083 295.698C248.555 295.383 249.223 294.911 250.089 294.282C250.954 293.574 251.819 292.827 252.685 292.04C253.629 291.175 254.455 290.349 255.163 289.562C255.871 288.775 256.264 288.107 256.343 287.556C256.343 287.163 256.264 286.73 256.107 286.258C253.983 282.403 251.505 278.863 248.673 275.638C248.437 277.211 248.279 279.178 248.201 281.538C248.122 283.898 248.083 286.258 248.083 288.618V295.698ZM236.991 308.088C237.148 305.02 237.266 302.149 237.345 299.474C237.423 296.799 237.463 293.928 237.463 290.86C237.463 284.567 237.345 278.352 237.109 272.216L234.867 273.278C235.024 276.346 235.103 279.296 235.103 282.128C235.181 284.881 235.221 287.792 235.221 290.86C235.221 296.996 235.103 303.132 234.867 309.268L236.991 308.088ZM240.885 274.222V276.582L247.493 271.154C247.493 270.761 247.493 270.367 247.493 269.974C247.571 269.502 247.65 269.069 247.729 268.676L240.885 274.222ZM240.885 278.706V281.066L247.139 275.874L247.375 273.396L240.885 278.706ZM240.885 283.072V285.432L246.903 280.476C246.981 280.083 247.021 279.689 247.021 279.296C247.021 278.824 247.021 278.391 247.021 277.998L240.885 283.072ZM240.885 305.964V308.442L247.493 303.014L246.667 302.66C246.667 302.424 246.627 302.227 246.549 302.07C246.549 301.834 246.549 301.598 246.549 301.362L240.885 305.964ZM240.885 287.674V290.034L246.667 285.314C246.667 284.921 246.667 284.527 246.667 284.134C246.745 283.662 246.785 283.229 246.785 282.836L240.885 287.674ZM240.885 292.158V294.518L246.549 289.916C246.549 289.523 246.549 289.129 246.549 288.736C246.627 288.264 246.667 287.831 246.667 287.438L240.885 292.158ZM240.885 301.362V303.722L246.549 299.12V296.76L240.885 301.362ZM240.885 296.76V299.12L246.549 294.518V292.158L240.885 296.76ZM242.773 308.796L244.779 309.504L251.151 304.312L249.145 303.604L242.773 308.796ZM250.443 311.274L252.567 311.864L258.585 307.026L256.579 306.2L250.443 311.274ZM246.667 310.094L248.673 310.684L254.927 305.61L252.921 304.902L246.667 310.094ZM254.337 312.454L256.461 313.044L262.243 308.324L260.237 307.616L254.337 312.454ZM240.885 271.98L254.219 261.006L253.157 259.944L240.885 269.974V271.98ZM258.467 282.01L265.193 276.464L264.249 274.93L257.523 280.358L258.467 282.01ZM249.853 269.266L256.461 263.838L255.399 262.422L248.673 267.85L249.853 269.266ZM254.337 275.402L260.945 269.974L259.883 268.44L253.275 273.868L254.337 275.402ZM260.237 285.314L267.081 279.768L266.137 278.116L259.411 283.662L260.237 285.314ZM256.461 278.706L263.187 273.278L262.243 271.744L255.517 277.172L256.461 278.706ZM252.095 272.216L258.703 266.788L257.641 265.372L251.033 270.8L252.095 272.216Z" fill="#0AF477"/>
<path d="M207.665 320.714C208.058 320.006 208.334 319.416 208.491 318.944C208.727 318.551 208.924 318.275 209.081 318.118C209.238 317.882 209.317 317.725 209.317 317.646C209.317 317.41 209.081 317.174 208.609 316.938C208.216 316.623 207.94 316.387 207.783 316.23C207.468 315.994 206.8 315.601 205.777 315.05C204.833 314.499 204.243 314.145 204.007 313.988C202.984 313.437 201.686 312.769 200.113 311.982C198.54 311.195 197.124 310.802 195.865 310.802C195.236 310.802 194.646 310.959 194.095 311.274C193.623 311.589 193.112 311.746 192.561 311.746C192.089 311.746 191.853 311.313 191.853 310.448C192.246 309.583 192.718 308.796 193.269 308.088C193.898 307.38 194.37 306.593 194.685 305.728C195.393 303.683 195.786 301.559 195.865 299.356C196.022 297.075 196.101 295.029 196.101 293.22C196.101 291.883 196.101 290.899 196.101 290.27C196.101 289.641 196.062 288.815 195.983 287.792C195.983 286.691 195.983 285.117 195.983 283.072C195.983 280.948 195.983 277.762 195.983 273.514C195.983 273.278 195.944 272.57 195.865 271.39C195.865 270.131 195.826 268.833 195.747 267.496C195.747 266.08 195.708 264.782 195.629 263.602C195.629 262.343 195.629 261.557 195.629 261.242C195.55 260.613 195.432 259.944 195.275 259.236C195.196 258.449 194.685 258.056 193.741 258.056H192.915C192.364 258.056 192.089 257.781 192.089 257.23C192.089 256.601 192.364 256.286 192.915 256.286C193.308 256.207 193.702 256.168 194.095 256.168C194.567 256.089 194.882 256.05 195.039 256.05C197.556 255.814 200.192 255.067 202.945 253.808C205.698 252.549 208.216 250.976 210.497 249.088C212.778 247.2 214.627 245.115 216.043 242.834C217.538 240.474 218.285 238.153 218.285 235.872C218.285 235.164 218.128 234.613 217.813 234.22C217.498 233.827 217.105 233.512 216.633 233.276C216.24 233.04 215.886 232.843 215.571 232.686C215.256 232.529 215.099 232.293 215.099 231.978C215.099 231.742 215.296 231.585 215.689 231.506C216.082 231.427 216.397 231.388 216.633 231.388C217.97 231.388 219.032 231.939 219.819 233.04C220.606 234.063 220.999 235.243 220.999 236.58C220.999 237.917 220.724 239.255 220.173 240.592C219.622 241.851 218.914 243.109 218.049 244.368C217.262 245.548 216.358 246.689 215.335 247.79C214.391 248.813 213.447 249.757 212.503 250.622C212.503 250.937 212.464 251.251 212.385 251.566C212.385 251.881 212.385 252.353 212.385 252.982C212.385 253.611 212.385 254.477 212.385 255.578C212.385 256.601 212.385 258.056 212.385 259.944H221.235C221.786 259.472 222.415 258.843 223.123 258.056C223.831 257.191 224.5 256.758 225.129 256.758C225.522 256.758 225.719 256.994 225.719 257.466C225.09 258.882 224.382 260.298 223.595 261.714C222.887 263.13 222.179 264.585 221.471 266.08C220.842 267.496 220.291 268.991 219.819 270.564C219.347 272.137 219.111 273.789 219.111 275.52C219.111 276.857 219.347 278.195 219.819 279.532C220.291 280.791 221.196 281.853 222.533 282.718L223.359 283.19C223.831 283.426 224.067 283.819 224.067 284.37C224.067 284.763 223.831 284.96 223.359 284.96C223.044 284.96 222.415 284.685 221.471 284.134C218.482 282.325 216.948 279.611 216.869 275.992C216.869 275.363 216.908 274.655 216.987 273.868C217.066 273.081 217.105 272.373 217.105 271.744H212.385C212.228 274.261 212.07 277.447 211.913 281.302C211.756 285.078 211.677 288.893 211.677 292.748C211.677 294.321 211.677 295.855 211.677 297.35C211.677 298.845 211.716 300.221 211.795 301.48C212.11 301.795 212.66 302.188 213.447 302.66C214.234 303.132 215.099 303.604 216.043 304.076C216.987 304.469 217.892 304.863 218.757 305.256C219.622 305.571 220.291 305.767 220.763 305.846C221.628 305.059 222.258 304.155 222.651 303.132C223.044 302.031 223.241 300.89 223.241 299.71C223.241 298.373 223.044 296.996 222.651 295.58C222.808 295.265 223.123 295.108 223.595 295.108C224.382 295.108 224.893 295.659 225.129 296.76C225.444 297.861 225.601 298.805 225.601 299.592C225.601 301.165 225.168 302.621 224.303 303.958C223.438 305.295 222.454 306.554 221.353 307.734L212.385 317.174C212.149 317.41 211.952 317.646 211.795 317.882C211.638 318.039 211.48 318.197 211.323 318.354C211.244 318.59 211.166 318.787 211.087 318.944C210.93 319.101 210.615 319.534 210.143 320.242C209.75 321.029 209.474 321.501 209.317 321.658C209.16 321.815 209.002 321.894 208.845 321.894C208.058 321.894 207.665 321.501 207.665 320.714ZM198.107 257.82V280.004C198.107 282.049 198.107 284.055 198.107 286.022C198.186 287.989 198.225 289.877 198.225 291.686C198.225 294.675 198.068 297.547 197.753 300.3C197.517 302.975 197.045 305.217 196.337 307.026L199.051 305.02C199.602 302.188 199.916 298.727 199.995 294.636C200.152 290.467 200.231 285.589 200.231 280.004V257.466L198.107 257.82ZM210.497 260.888L203.889 265.726V268.086L212.503 261.596H210.497V260.888ZM203.889 258.882L210.497 254.044V251.684L203.889 256.64V258.882ZM203.889 263.602L210.497 258.764V256.404L203.889 261.36V263.602ZM203.889 272.334L210.497 267.496V266.788H211.323L218.285 261.596H215.217L203.889 269.974V272.334ZM221.235 261.596L214.273 266.788H217.341L221.235 261.596ZM213.565 312.926L219.701 307.262L218.403 306.672L211.795 311.982L213.565 312.926ZM203.889 276.936L210.379 272.098V269.738L203.889 274.576V276.936ZM203.889 281.538L210.379 276.7V274.34L203.889 279.178V281.538ZM203.889 290.388L210.261 285.668V283.308L203.889 288.028V290.388ZM210.497 311.274L216.869 306.082L215.099 305.256L208.727 310.33L210.497 311.274ZM203.889 286.14L210.261 281.42V279.06L203.889 283.78V286.14ZM207.429 309.622L213.683 304.548L211.795 303.722L205.659 308.678L207.429 309.622ZM203.889 294.754L210.143 290.034L210.261 287.792L203.889 292.394V294.754ZM209.907 301.126L203.889 305.964V307.734L204.361 307.97L210.379 303.132L209.907 302.896V301.126ZM203.889 299.238L210.025 294.754L210.143 292.394L203.889 296.996V299.238ZM203.889 303.84L209.907 299.356L210.025 296.996L203.889 301.598V303.84Z" fill="#0AF477"/>
<path d="M186.439 271.036L181.247 275.52L181.719 277.408L187.029 273.042L186.439 271.036ZM185.023 267.142L179.595 271.862L180.539 273.514L185.849 269.03L185.023 267.142ZM183.489 263.484L177.943 268.676L178.887 270.328L184.433 265.136L183.489 263.484ZM167.795 320.832C167.795 320.439 167.834 320.045 167.913 319.652C168.07 319.337 168.149 318.983 168.149 318.59C168.149 318.118 167.48 317.528 166.143 316.82C164.884 316.033 163.429 315.286 161.777 314.578C160.125 313.87 158.552 313.28 157.057 312.808C155.562 312.257 154.579 311.982 154.107 311.982C153.242 311.982 152.455 312.218 151.747 312.69C151.039 313.083 150.292 313.28 149.505 313.28C149.269 313.28 149.112 313.083 149.033 312.69C148.954 312.297 148.915 311.982 148.915 311.746C149.151 311.195 149.662 310.566 150.449 309.858C151.236 309.071 151.708 308.245 151.865 307.38C152.337 302.817 152.573 298.176 152.573 293.456C152.573 290.467 152.534 287.477 152.455 284.488C152.455 281.42 152.376 278.391 152.219 275.402C152.219 275.009 152.101 274.537 151.865 273.986C151.708 273.357 151.55 272.924 151.393 272.688C151.078 272.295 150.646 271.98 150.095 271.744C149.623 271.508 149.151 271.311 148.679 271.154C148.207 270.918 147.814 270.682 147.499 270.446C147.184 270.21 147.027 269.895 147.027 269.502C147.027 269.187 147.145 268.951 147.381 268.794C147.696 268.637 147.892 268.519 147.971 268.44C150.724 266.709 153.36 264.821 155.877 262.776C158.394 260.731 160.794 258.567 163.075 256.286C163.468 255.893 163.744 255.696 163.901 255.696C164.137 255.696 164.373 255.814 164.609 256.05C164.924 256.286 165.081 256.601 165.081 256.994C165.081 257.151 164.963 257.387 164.727 257.702C164.57 257.938 164.491 258.174 164.491 258.41C164.727 258.803 165.238 259.157 166.025 259.472C166.89 259.708 167.441 259.905 167.677 260.062C167.913 260.141 168.228 260.298 168.621 260.534C169.014 260.691 169.329 260.77 169.565 260.77C169.722 260.927 169.84 261.045 169.919 261.124C170.076 261.203 170.155 261.321 170.155 261.478C169.919 262.107 169.762 262.776 169.683 263.484C169.683 264.113 169.683 264.664 169.683 265.136V267.614C172.122 266.434 174.442 264.743 176.645 262.54C178.848 260.337 180.775 258.213 182.427 256.168C182.584 255.853 182.86 255.696 183.253 255.696C183.804 255.696 184.158 256.011 184.315 256.64C184.315 257.033 184.158 257.387 183.843 257.702C183.528 258.017 183.371 258.41 183.371 258.882C183.371 259.118 183.371 259.315 183.371 259.472C183.45 259.629 183.528 259.787 183.607 259.944C184.472 261.832 185.456 264.035 186.557 266.552C187.658 269.069 188.248 271.39 188.327 273.514C188.327 273.829 188.17 274.143 187.855 274.458C185.731 275.953 183.961 277.565 182.545 279.296C181.208 280.948 180.028 282.993 179.005 285.432C179.005 285.747 178.848 286.022 178.533 286.258C178.218 286.415 177.943 286.494 177.707 286.494C177.235 286.494 176.999 286.14 176.999 285.432C176.999 282.679 176.724 280.24 176.173 278.116C175.622 275.913 174.285 273.947 172.161 272.216C171.846 271.98 171.414 271.862 170.863 271.862C170.784 271.862 170.627 271.901 170.391 271.98C170.155 272.059 169.998 272.216 169.919 272.452C169.84 273.868 169.762 275.953 169.683 278.706C169.683 281.381 169.683 284.213 169.683 287.202C169.683 290.191 169.683 293.063 169.683 295.816C169.683 298.569 169.683 300.693 169.683 302.188C171.65 302.896 173.577 303.683 175.465 304.548C177.432 305.335 179.398 306.043 181.365 306.672C182.073 306.043 182.624 305.177 183.017 304.076C183.41 302.975 183.607 301.834 183.607 300.654C183.607 299.789 183.489 298.963 183.253 298.176C183.017 297.311 182.624 296.563 182.073 295.934C181.758 295.619 181.601 295.305 181.601 294.99C181.601 294.439 181.916 294.164 182.545 294.164C183.017 294.164 183.41 294.361 183.725 294.754C184.433 295.698 184.984 296.642 185.377 297.586C185.849 298.451 186.085 299.513 186.085 300.772C186.085 303.053 185.456 304.902 184.197 306.318C182.938 307.734 181.562 309.111 180.067 310.448C178.73 311.785 177.156 313.201 175.347 314.696C173.616 316.191 172.161 317.803 170.981 319.534C170.745 319.691 170.509 320.085 170.273 320.714C170.037 321.422 169.683 321.776 169.211 321.776C168.975 321.776 168.66 321.697 168.267 321.54C167.952 321.461 167.795 321.225 167.795 320.832ZM154.697 273.396V296.878C154.697 298.923 154.579 300.929 154.343 302.896C154.186 304.863 153.91 306.829 153.517 308.796L155.287 307.734C155.759 306.397 156.113 304.666 156.349 302.542C156.664 300.339 156.821 298.294 156.821 296.406V274.458L154.697 273.396ZM160.951 267.732L167.441 262.186L165.671 261.36L159.063 266.906L160.951 267.732ZM157.411 266.198L164.019 260.534L162.249 259.708L155.523 265.372L157.411 266.198ZM161.659 290.152L167.913 284.842V282.482L161.659 287.674V290.152ZM161.659 285.432L167.913 280.122V277.762L161.659 282.954V285.432ZM161.659 299.356L167.913 294.046V291.686L161.659 296.878V299.356ZM161.659 294.754L167.913 289.444V287.084L161.659 292.394V294.754ZM161.659 271.508L167.913 266.198V263.838L161.659 269.148V271.508ZM161.659 304.194L167.913 298.884V296.524L161.659 301.834V304.194ZM173.931 313.28L180.067 308.088L178.061 307.262L172.161 312.336L173.931 313.28ZM161.659 276.11L167.913 270.8V268.44L161.659 273.75V276.11ZM161.659 280.83L167.913 275.52V273.16L161.659 278.47V280.83ZM170.273 311.274L176.055 306.436L174.049 305.728L168.621 310.33L170.273 311.274ZM167.913 301.362L161.777 306.554L163.429 307.498L167.913 303.722V301.362ZM166.733 309.268L171.925 304.902L170.037 304.076L165.081 308.324L166.733 309.268ZM181.719 260.298L176.173 265.49L177.117 267.142L182.663 261.95L181.719 260.298Z" fill="#0AF477"/>
<path d="M107.653 320.714C107.81 320.321 108.046 319.809 108.361 319.18C108.675 318.551 108.833 318.197 108.833 318.118C108.833 317.961 108.203 317.607 106.945 317.056C105.686 316.427 104.231 315.758 102.579 315.05C101.005 314.342 99.4713 313.713 97.9766 313.162C96.5606 312.533 95.656 312.179 95.2626 312.1L92.9026 311.628C92.2733 311.549 91.9586 311.274 91.9586 310.802C91.9586 310.487 91.998 310.251 92.0766 310.094C92.234 309.858 92.588 309.74 93.1386 309.74C93.768 309.74 94.3186 309.465 94.7906 308.914C95.3413 308.363 95.6953 307.616 95.8526 306.672C96.7966 300.536 97.2686 294.361 97.2686 288.146C97.2686 285.786 97.1899 283.426 97.0326 281.066C96.9539 278.627 96.7573 276.189 96.4426 273.75C96.4426 273.593 96.364 273.514 96.2066 273.514C96.0493 273.514 95.892 273.514 95.7346 273.514C95.42 273.514 95.1053 273.593 94.7906 273.75C94.476 273.829 94.1613 273.868 93.8466 273.868C93.6106 273.868 93.414 273.75 93.2566 273.514C93.178 273.278 93.1386 273.042 93.1386 272.806C93.1386 272.57 93.3353 272.373 93.7286 272.216L94.4366 271.98C95.8526 271.272 97.3866 270.603 99.0386 269.974C100.769 269.266 102.264 268.361 103.523 267.26L113.907 258.41C114.064 258.331 114.3 258.095 114.615 257.702C115.008 257.309 115.283 257.033 115.441 256.876C115.677 256.719 115.834 256.601 115.913 256.522C116.07 256.365 116.267 256.286 116.503 256.286C117.211 256.286 117.565 256.64 117.565 257.348C117.565 257.82 117.368 258.174 116.975 258.41C116.66 258.567 116.503 258.882 116.503 259.354C116.503 259.59 116.621 259.787 116.857 259.944C117.093 260.023 117.289 260.101 117.447 260.18C120.672 262.147 124.015 263.641 127.477 264.664C131.017 265.687 134.557 266.788 138.097 267.968C138.254 268.125 138.411 268.243 138.569 268.322C138.805 268.401 138.923 268.637 138.923 269.03C138.215 271.547 137.743 274.065 137.507 276.582C137.271 279.021 137.153 281.499 137.153 284.016C137.153 285.983 137.192 287.989 137.271 290.034C137.349 292.001 137.389 294.007 137.389 296.052C137.389 296.681 137.389 297.507 137.389 298.53C137.467 299.474 137.625 300.418 137.861 301.362C138.175 302.306 138.608 303.132 139.159 303.84C139.709 304.548 140.457 304.902 141.401 304.902C141.794 304.902 142.227 304.745 142.699 304.43C143.171 304.037 143.603 303.84 143.997 303.84C144.154 303.84 144.272 303.958 144.351 304.194C144.508 304.43 144.626 304.627 144.705 304.784L132.079 317.056C131.843 317.292 131.567 317.646 131.253 318.118C130.938 318.669 130.623 319.18 130.309 319.652C130.073 320.203 129.797 320.675 129.483 321.068C129.168 321.461 128.853 321.658 128.539 321.658C127.988 321.658 127.713 321.422 127.713 320.95C127.713 320.321 127.87 319.691 128.185 319.062C128.578 318.511 128.775 317.882 128.775 317.174C128.775 316.781 128.735 316.466 128.657 316.23C128.657 315.915 128.539 315.601 128.303 315.286C128.145 315.207 127.909 314.971 127.595 314.578C127.359 314.185 127.083 313.791 126.769 313.398C126.533 312.926 126.257 312.533 125.943 312.218C125.628 311.825 125.431 311.589 125.353 311.51C124.881 310.881 124.369 310.33 123.819 309.858C123.268 309.386 122.678 309.032 122.049 308.796C121.813 308.796 121.38 308.993 120.751 309.386C120.2 309.779 119.61 310.212 118.981 310.684C118.351 311.156 117.761 311.667 117.211 312.218C116.66 312.69 116.267 313.044 116.031 313.28C114.693 314.46 113.474 315.758 112.373 317.174C111.35 318.59 110.288 320.006 109.187 321.422C109.108 321.501 109.029 321.54 108.951 321.54C108.872 321.619 108.754 321.658 108.597 321.658C108.439 321.658 108.243 321.54 108.007 321.304C107.771 321.068 107.653 320.871 107.653 320.714ZM113.317 271.98C112.923 275.677 112.648 279.139 112.491 282.364C112.333 285.511 112.255 288.736 112.255 292.04C112.255 293.613 112.255 295.187 112.255 296.76C112.333 298.333 112.412 300.025 112.491 301.834C113.749 302.935 115.008 303.879 116.267 304.666C117.525 305.374 118.941 306.121 120.515 306.908L121.577 304.43C121.734 302.699 121.813 301.008 121.813 299.356C121.813 297.625 121.813 295.934 121.813 294.282C121.813 292.394 121.773 290.467 121.695 288.5C121.695 286.533 121.655 284.685 121.577 282.954C121.498 281.223 121.419 279.689 121.341 278.352C121.262 277.015 121.223 275.992 121.223 275.284L117.211 273.632C116.66 273.475 116.149 273.278 115.677 273.042C115.283 272.806 114.89 272.609 114.497 272.452C114.103 272.216 113.71 272.059 113.317 271.98ZM98.2126 272.806C98.5273 275.323 98.724 277.801 98.8026 280.24C98.96 282.6 99.0386 284.999 99.0386 287.438C99.0386 290.978 98.9206 294.479 98.6846 297.94C98.4486 301.323 98.1339 304.784 97.7406 308.324L99.8646 308.914C100.573 302.306 100.927 295.58 100.927 288.736C100.927 285.904 100.848 283.072 100.691 280.24C100.612 277.408 100.415 274.615 100.101 271.862L98.2126 272.806ZM125.471 304.666C125.549 302.149 125.589 299.867 125.589 297.822C125.667 295.777 125.707 293.495 125.707 290.978C125.707 288.461 125.667 286.14 125.589 284.016C125.51 281.813 125.431 279.453 125.353 276.936L123.347 276.11C123.425 278.627 123.465 281.105 123.465 283.544C123.543 285.983 123.583 288.461 123.583 290.978C123.583 293.495 123.543 295.973 123.465 298.412C123.465 300.851 123.425 303.329 123.347 305.846L125.471 304.666ZM104.585 273.396C104.585 273.789 104.585 274.183 104.585 274.576C104.663 274.891 104.703 275.245 104.703 275.638L111.783 269.856C111.783 269.699 111.783 269.305 111.783 268.676C111.861 268.047 111.901 267.653 111.901 267.496L104.585 273.396ZM105.057 279.768L111.547 274.458L111.783 271.98L104.821 277.526L105.057 279.768ZM106.945 309.622L113.553 304.312L111.901 303.25L105.175 308.678L106.945 309.622ZM104.349 307.144L111.075 301.716V299.356L104.703 304.43L104.349 307.144ZM110.013 311.51L116.503 306.2L114.851 305.256L108.361 310.448L110.013 311.51ZM113.317 313.28L119.571 308.206L117.919 307.144L111.547 312.336L113.317 313.28ZM105.175 281.656C105.175 282.049 105.175 282.443 105.175 282.836C105.175 283.151 105.214 283.505 105.293 283.898L111.429 278.942C111.429 278.549 111.429 278.155 111.429 277.762C111.429 277.29 111.468 276.857 111.547 276.464L105.175 281.656ZM105.293 286.022C105.293 286.415 105.293 286.809 105.293 287.202C105.371 287.595 105.411 287.989 105.411 288.382L111.193 283.662C111.193 283.269 111.193 282.875 111.193 282.482C111.271 282.01 111.311 281.577 111.311 281.184L105.293 286.022ZM105.175 299.474C105.175 299.867 105.135 300.3 105.057 300.772C105.057 301.165 105.057 301.559 105.057 301.952L110.957 297.114V294.754L105.175 299.474ZM105.411 292.866L111.075 288.264C111.075 287.871 111.075 287.477 111.075 287.084C111.153 286.691 111.193 286.297 111.193 285.904L105.411 290.506V292.866ZM105.411 294.872C105.411 295.265 105.411 295.659 105.411 296.052C105.411 296.445 105.371 296.839 105.293 297.232L110.957 292.63C110.957 292.237 110.957 291.843 110.957 291.45C111.035 291.057 111.075 290.663 111.075 290.27L105.411 294.872ZM104.113 269.384C104.191 269.777 104.231 270.131 104.231 270.446C104.309 270.761 104.349 271.115 104.349 271.508L116.503 261.478C116.188 261.321 115.873 261.163 115.559 261.006C115.323 260.849 115.087 260.691 114.851 260.534L104.113 269.384ZM114.497 267.496L119.571 263.13L117.801 262.186L112.727 266.788L114.497 267.496ZM129.719 305.374V306.672L130.191 307.38L136.563 301.952L136.327 299.71L129.719 305.374ZM130.781 274.222L130.427 276.936L137.035 270.918L137.507 269.03C137.349 269.03 137.192 269.03 137.035 269.03C136.877 268.951 136.72 268.912 136.563 268.912L130.781 274.222ZM129.719 300.89V303.368L136.209 297.822C136.209 297.429 136.169 297.035 136.091 296.642C136.091 296.249 136.091 295.855 136.091 295.462L129.719 300.89ZM130.191 278.824C130.191 279.296 130.151 279.768 130.073 280.24C130.073 280.633 130.073 281.027 130.073 281.42L136.327 276.11L136.681 273.396L130.191 278.824ZM129.601 296.524C129.601 296.917 129.601 297.311 129.601 297.704C129.679 298.097 129.719 298.491 129.719 298.884L135.973 293.574C135.894 293.181 135.855 292.787 135.855 292.394C135.855 292.001 135.855 291.607 135.855 291.214L129.601 296.524ZM129.955 283.19C129.876 283.583 129.837 284.016 129.837 284.488C129.837 284.881 129.837 285.275 129.837 285.668L135.973 280.476C135.973 280.083 135.973 279.689 135.973 279.296C136.051 278.824 136.091 278.352 136.091 277.88L129.955 283.19ZM133.377 311.156L134.439 312.454L140.575 306.79C140.339 306.633 140.142 306.515 139.985 306.436C139.906 306.357 139.749 306.2 139.513 305.964L133.377 311.156ZM129.719 287.91V290.388L135.737 285.196V282.718L129.719 287.91ZM131.253 308.678L132.433 310.094L138.451 305.02L137.153 303.604L131.253 308.678ZM129.601 292.158V294.518L135.737 289.326V286.966L129.601 292.158ZM127.713 272.098L129.719 272.806L134.557 268.44L132.433 267.85L127.713 272.098ZM116.621 268.086L118.627 268.794L122.993 264.782L121.105 263.956L116.621 268.086ZM124.055 270.8L125.943 271.508L130.545 267.378L128.421 266.788L124.055 270.8ZM120.397 269.384L122.285 270.092L126.769 266.198L124.763 265.49L120.397 269.384Z" fill="#0AF477"/>
<path d="M39.6874 330.744H39.2154C38.5861 330.744 38.0354 331.216 37.5634 332.16C37.1701 333.104 36.8947 333.891 36.7374 334.52H36.2654C35.5574 334.52 35.2034 334.127 35.2034 333.34C35.2034 332.711 35.3607 332.081 35.6754 331.452C36.0687 330.823 36.5407 330.311 37.0914 329.918C39.3727 327.479 41.8901 325.159 44.6434 322.956C47.4754 320.832 50.3467 318.865 53.2574 317.056C50.4254 315.719 47.5541 314.342 44.6434 312.926C41.7327 311.51 38.7434 310.802 35.6754 310.802C34.8887 310.802 34.2987 310.841 33.9054 310.92C33.5907 310.605 33.4334 310.291 33.4334 309.976C33.4334 309.897 33.5907 309.779 33.9054 309.622C34.2987 309.386 34.6921 309.111 35.0854 308.796C35.5574 308.481 35.9901 308.167 36.3834 307.852C36.8554 307.459 37.1701 307.026 37.3274 306.554C37.4847 304.43 37.6027 302.306 37.6814 300.182C37.7601 298.058 37.7994 295.855 37.7994 293.574C37.7994 290.27 37.6814 287.005 37.4454 283.78C37.2881 280.476 36.9734 277.211 36.5014 273.986C36.1081 274.143 35.7541 274.222 35.4394 274.222C35.2034 274.222 34.8887 274.222 34.4954 274.222C34.3381 274.222 34.1021 274.222 33.7874 274.222C33.5514 274.143 33.4334 273.986 33.4334 273.75C33.4334 272.963 33.7087 272.452 34.2594 272.216C36.8554 271.665 39.2941 270.839 41.5754 269.738C43.8567 268.558 46.0201 267.26 48.0654 265.844C50.1107 264.349 52.0774 262.776 53.9654 261.124C55.9321 259.472 57.9381 257.859 59.9834 256.286C60.1407 256.286 60.2587 256.247 60.3374 256.168C60.4161 256.168 60.4554 256.129 60.4554 256.05C60.7701 256.207 60.9667 256.325 61.0454 256.404C61.2027 256.404 61.2814 256.522 61.2814 256.758C61.2814 257.151 61.1634 257.505 60.9274 257.82C60.6914 258.056 60.5734 258.371 60.5734 258.764C60.5734 259 60.6521 259.118 60.8094 259.118C62.6187 260.141 64.5461 261.045 66.5914 261.832C68.7154 262.619 70.7607 263.327 72.7274 263.956C74.3007 264.507 75.7954 264.9 77.2114 265.136C78.6274 265.372 80.1614 265.49 81.8134 265.49C82.4427 265.49 83.0721 265.372 83.7014 265.136C84.3307 264.9 84.9601 264.782 85.5894 264.782C85.9827 264.782 86.1794 264.821 86.1794 264.9C86.2581 264.979 86.2974 265.136 86.2974 265.372C86.2974 265.844 86.1007 266.316 85.7074 266.788C85.3141 267.181 84.8814 267.653 84.4094 268.204C83.9374 268.676 83.4261 269.227 82.8754 269.856C82.4034 270.407 82.0494 270.997 81.8134 271.626C81.1841 273.278 80.7514 274.891 80.5154 276.464C80.2794 278.037 80.1614 279.611 80.1614 281.184C80.1614 283.465 80.3187 285.747 80.6334 288.028C81.0267 290.231 81.4201 292.591 81.8134 295.108C83.9374 292.827 84.9994 290.073 84.9994 286.848C84.9994 285.117 84.6061 283.505 83.8194 282.01C83.7407 281.931 83.7014 281.774 83.7014 281.538C83.7014 281.223 83.8587 281.066 84.1734 281.066C84.4094 281.066 84.6061 281.105 84.7634 281.184C85.7861 281.971 86.5334 282.797 87.0054 283.662C87.5561 284.527 87.8314 285.629 87.8314 286.966C87.8314 288.146 87.5561 289.326 87.0054 290.506C86.5334 291.686 85.9827 292.787 85.3534 293.81C84.7241 294.754 84.0947 295.58 83.4654 296.288C82.9147 296.996 82.5607 297.468 82.4034 297.704C82.5607 299.277 82.7181 300.929 82.8754 302.66C83.0327 304.312 83.1114 305.964 83.1114 307.616C83.1114 310.448 82.8361 313.201 82.2854 315.876C81.8134 318.551 80.4761 321.029 78.2734 323.31C77.2507 324.097 75.9921 325.08 74.4974 326.26C73.0027 327.44 71.3507 328.62 69.5414 329.8C67.7321 331.059 65.8047 332.199 63.7594 333.222C61.7141 334.323 59.7081 335.149 57.7414 335.7C56.1681 335.7 54.5161 335.503 52.7854 335.11C51.1334 334.795 49.5207 334.363 47.9474 333.812C46.3741 333.34 44.8401 332.829 43.3454 332.278C41.9294 331.727 40.7101 331.216 39.6874 330.744ZM51.9594 320.124C53.7687 321.461 55.7354 322.405 57.8594 322.956C59.9834 323.507 62.1861 323.782 64.4674 323.782H65.7654L64.4674 312.454C62.3434 313.555 60.2194 314.775 58.0954 316.112C56.0501 317.449 54.0047 318.787 51.9594 320.124ZM63.8774 306.79C63.7987 305.453 63.7201 304.155 63.6414 302.896C63.6414 301.559 63.6414 300.221 63.6414 298.884C63.6414 294.872 63.8774 290.899 64.3494 286.966C64.9001 282.954 65.7261 279.06 66.8274 275.284C66.1981 275.048 65.2934 274.733 64.1134 274.34C63.0121 273.947 61.7927 273.553 60.4554 273.16C59.1967 272.767 57.9774 272.413 56.7974 272.098C55.6174 271.705 54.6734 271.39 53.9654 271.154V280.948C53.9654 284.488 53.8867 288.067 53.7294 291.686C53.6507 295.226 53.3361 298.766 52.7854 302.306C54.5161 303.171 56.3254 304.037 58.2134 304.902C60.1014 305.689 61.9894 306.318 63.8774 306.79ZM39.2154 273.16C39.4514 276.071 39.6481 278.863 39.8054 281.538C39.9627 284.134 40.0414 286.691 40.0414 289.208C40.0414 292.04 40.0021 294.911 39.9234 297.822C39.8447 300.654 39.6481 303.683 39.3334 306.908L41.2214 307.144C41.5361 303.919 41.7327 300.89 41.8114 298.058C41.8901 295.147 41.9294 292.197 41.9294 289.208C41.9294 286.533 41.8507 283.819 41.6934 281.066C41.5361 278.234 41.3394 275.363 41.1034 272.452L39.2154 273.16ZM68.5974 275.756C67.4961 279.06 66.7487 282.364 66.3554 285.668C65.9621 288.972 65.7654 292.355 65.7654 295.816C65.7654 299.12 65.8834 302.424 66.1194 305.728C66.4341 309.032 66.7881 312.336 67.1814 315.64C67.3387 317.056 67.4961 318.393 67.6534 319.652C67.8107 320.911 67.9681 322.248 68.1254 323.664L70.2494 323.428C69.6201 318.787 69.0694 314.185 68.5974 309.622C68.1254 305.059 67.8894 300.457 67.8894 295.816C67.8894 292.591 68.0861 289.405 68.4794 286.258C68.8727 283.033 69.6201 279.768 70.7214 276.464L68.5974 275.756ZM55.8534 265.726L57.9774 266.434L63.1694 261.95L61.0454 261.242L55.8534 265.726ZM52.1954 264.428L54.2014 265.136L59.3934 260.652L57.3874 259.944L52.1954 264.428ZM71.3114 270.446C71.7047 270.525 72.0587 270.603 72.3734 270.682C72.6881 270.761 73.0421 270.879 73.4354 271.036L78.5094 266.67C77.6441 266.355 76.8967 266.159 76.2674 266.08L71.3114 270.446ZM59.7474 267.024L61.8714 267.614L66.9454 263.248L64.9394 262.54L59.7474 267.024ZM67.4174 269.266C67.8107 269.423 68.1647 269.541 68.4794 269.62C68.7941 269.699 69.1481 269.777 69.5414 269.856L74.6154 265.608L72.4914 264.9L67.4174 269.266ZM75.3234 271.39C75.7167 271.547 76.0707 271.665 76.3854 271.744C76.7001 271.823 77.0541 271.901 77.4474 271.98L82.5214 267.496C81.9707 267.339 81.5381 267.26 81.2234 267.26C80.9874 267.26 80.6727 267.221 80.2794 267.142L75.3234 271.39ZM63.6414 268.204C64.0347 268.361 64.3887 268.479 64.7034 268.558C65.0181 268.637 65.3721 268.715 65.7654 268.794L70.8394 264.428L68.7154 263.838L63.6414 268.204ZM45.8234 277.29V279.768L52.3134 274.93C52.3134 274.537 52.2741 274.143 52.1954 273.75C52.1954 273.278 52.1954 272.845 52.1954 272.452L45.8234 277.29ZM45.5874 273.16C45.6661 273.553 45.7054 273.986 45.7054 274.458C45.7054 274.851 45.7054 275.245 45.7054 275.638L51.9594 270.8V268.204L45.5874 273.16ZM45.9414 281.184V283.662L52.3134 278.824V276.346L45.9414 281.184ZM46.0594 285.078V287.674L52.1954 282.954C52.1954 282.561 52.1954 282.128 52.1954 281.656C52.2741 281.184 52.3134 280.751 52.3134 280.358L46.0594 285.078ZM46.0594 289.208V291.804L52.1954 287.202V284.606L46.0594 289.208ZM46.0594 293.338V295.934L52.0774 291.332V288.736L46.0594 293.338ZM46.0594 297.586V300.182L51.8414 295.816C51.8414 295.344 51.8414 294.911 51.8414 294.518C51.9201 294.046 51.9594 293.574 51.9594 293.102L46.0594 297.586ZM45.9414 301.834C45.8627 302.306 45.8234 302.778 45.8234 303.25C45.8234 303.643 45.8234 304.076 45.8234 304.548L51.6054 300.064C51.6841 299.592 51.7234 299.159 51.7234 298.766C51.7234 298.294 51.7234 297.861 51.7234 297.468L45.9414 301.834ZM57.2694 312.808L59.3934 313.752L65.0574 309.504L62.8154 308.678L57.2694 312.808ZM54.0834 311.392L56.0894 312.336L61.6354 308.206L59.3934 307.262L54.0834 311.392ZM45.7054 306.082C45.6267 306.239 45.5874 306.475 45.5874 306.79V307.498L46.5314 307.97L51.3694 304.076L51.6054 301.598L45.7054 306.082ZM51.0154 309.976L53.0214 310.92L58.3314 306.908L56.2074 305.964L51.0154 309.976ZM47.7114 308.442L49.8354 309.386L55.0274 305.492L52.7854 304.666L47.7114 308.442ZM45.4694 269.62C45.4694 270.013 45.4694 270.367 45.4694 270.682C45.5481 270.997 45.5874 271.311 45.5874 271.626L51.7234 266.67V264.782L45.4694 269.62ZM74.1434 305.492C74.1434 305.885 74.1434 306.239 74.1434 306.554C74.1434 306.869 74.1827 307.223 74.2614 307.616L81.1054 302.66L80.8694 300.418L74.1434 305.492ZM74.3794 309.622C74.3794 310.015 74.3794 310.369 74.3794 310.684C74.3794 310.999 74.4187 311.353 74.4974 311.746L80.9874 307.026C81.0661 306.633 81.1054 306.239 81.1054 305.846C81.1054 305.453 81.1054 305.059 81.1054 304.666L74.3794 309.622ZM73.7894 301.244C73.7894 301.637 73.7894 301.991 73.7894 302.306C73.8681 302.621 73.9074 302.975 73.9074 303.368L80.6334 298.412L80.2794 296.406L73.7894 301.244ZM74.6154 313.752V315.994L80.8694 311.51L81.2234 309.032L74.6154 313.752ZM73.3174 297.468C73.3174 297.861 73.3567 298.215 73.4354 298.53C73.5141 298.845 73.5534 299.199 73.5534 299.592L79.9254 294.872L79.4534 292.984L73.3174 297.468ZM72.9634 293.456C72.9634 293.849 72.9634 294.243 72.9634 294.636C73.0421 294.951 73.0814 295.305 73.0814 295.698L79.2174 291.214L78.8634 289.09L72.9634 293.456ZM72.7274 285.078V287.438L78.5094 283.19V280.83L72.7274 285.078ZM72.7274 289.444C72.7274 289.837 72.7274 290.231 72.7274 290.624C72.7274 290.939 72.7667 291.293 72.8454 291.686L78.7454 287.32L78.5094 285.196L72.7274 289.444ZM73.0814 280.83L72.8454 283.19L78.5094 279.06C78.5881 278.667 78.6274 278.273 78.6274 277.88C78.6274 277.487 78.6274 277.093 78.6274 276.7L73.0814 280.83ZM74.7334 318.118V320.242L79.9254 316.702C80.0827 316.23 80.2007 315.758 80.2794 315.286C80.3581 314.814 80.4367 314.381 80.5154 313.988L74.7334 318.118ZM73.6714 276.346L73.1994 278.942L78.8634 274.812C78.8634 274.419 78.8634 274.025 78.8634 273.632C78.9421 273.16 79.0207 272.727 79.0994 272.334L73.6714 276.346ZM74.8514 322.248V323.664L78.1554 321.304L78.8634 319.298L74.8514 322.248ZM63.2874 331.098H65.1754L72.3734 325.552C71.9014 325.552 71.4294 325.552 70.9574 325.552C70.4854 325.552 70.0527 325.513 69.6594 325.434L63.2874 331.098ZM58.5674 330.508L61.0454 330.862L67.2994 325.316C66.9061 325.316 66.4734 325.277 66.0014 325.198C65.5294 325.198 65.0967 325.159 64.7034 325.08L58.5674 330.508ZM54.3194 329.8L56.5614 330.272L62.6974 324.844L60.4554 324.49L54.3194 329.8ZM47.0034 327.558L49.0094 328.266L54.7914 323.074L52.7854 322.366L47.0034 327.558ZM50.6614 328.738C51.0547 328.895 51.3694 329.013 51.6054 329.092C51.9201 329.171 52.2741 329.249 52.6674 329.328L58.5674 324.136L56.4434 323.546L50.6614 328.738ZM43.6994 326.26L45.4694 326.968L51.3694 321.776L49.8354 321.186L43.6994 326.26Z" fill="#0AF477"/>
</svg>
