<svg width="282" height="282" viewBox="0 0 282 282" fill="none" xmlns="http://www.w3.org/2000/svg">
<rect width="282" height="282" rx="141" fill="white"/>
<path d="M51 119.013V159.071L63.1427 171.214H70.7663V131.156L58.6361 119.013H51Z" fill="#FF7C7C"/>
<path d="M116.546 171.214H124.169V145.94C124.169 141.721 122.467 137.916 119.7 135.149L107.557 123.006C104.791 120.24 100.985 118.537 96.7667 118.537C93.1114 118.537 89.744 119.827 87.1152 121.98C83.6977 124.784 81.507 129.04 81.507 133.797V159.071L93.6497 171.214H97.4677V147.367C97.4677 142.998 100.397 139.318 104.403 138.191V159.071L116.546 171.214Z" fill="#FF7C7C"/>
<path d="M89.8441 171.214H97.4678V145.94C97.4678 141.721 95.7653 137.916 92.9987 135.149L80.856 123.006C78.0895 120.24 74.2839 118.537 70.0653 118.537C66.3974 118.537 63.0426 119.827 60.4137 121.98C56.9962 124.784 54.8055 129.04 54.8055 133.797V159.071L66.9483 171.214H70.7663V147.367C70.7663 142.998 73.6956 139.318 77.7014 138.191V159.071L89.8441 171.214Z" fill="#FF7C7C"/>
<path d="M149.456 171.69C160.785 171.69 169.961 162.514 169.961 151.185C169.961 145.527 167.67 140.394 163.952 136.689L151.81 124.546C148.104 120.841 142.972 118.537 137.313 118.537C132.394 118.537 127.875 120.277 124.344 123.157C119.75 126.912 116.809 132.633 116.809 139.042C116.809 144.7 119.099 149.833 122.817 153.538C122.817 153.538 122.817 153.538 122.817 153.551L134.947 165.681C138.653 169.386 143.785 171.69 149.444 171.69M137.313 159.56C134.81 159.56 132.419 159.109 130.216 158.295C129.978 157.669 129.777 157.031 129.615 156.367L137.326 159.56H137.313ZM145.463 149.019C143.247 150.834 140.405 151.923 137.313 151.923C137.076 151.923 136.838 151.923 136.6 151.898C136.587 151.661 136.575 151.423 136.575 151.185C136.575 144.075 142.333 138.304 149.456 138.304C149.694 138.304 149.932 138.304 150.17 138.329C150.17 138.567 150.195 138.804 150.195 139.042C150.195 143.061 148.355 146.653 145.463 149.019Z" fill="#FF7C7C"/>
<path d="M149.456 189.816C160.785 189.816 169.961 180.64 169.961 169.311V133.484L157.818 121.341L150.182 116.935V157.169C150.182 161.187 148.342 164.78 145.45 167.146C143.235 168.961 140.393 170.05 137.301 170.05C135.386 170.05 133.583 169.637 131.943 168.886L125.609 162.551L118.987 166.369C119.976 168.347 121.278 170.137 122.83 171.677L134.972 183.82C138.678 187.525 143.785 189.816 149.444 189.816" fill="#FF7C7C"/>
<path d="M185.221 131.569L192.857 127.162L180.714 115.02L159.095 102.539L150.195 106.219L162.337 118.349L185.221 131.569Z" fill="#FF7C7C"/>
<path d="M218.87 93L165.454 115.02L177.597 127.162L185.221 131.569L231 105.143L218.87 93Z" fill="#FF7C7C"/>
<path d="M177.597 171.214H185.221V142.284L173.078 130.154L165.454 125.748V159.071L177.597 171.214Z" fill="#FF7C7C"/>
<path d="M211.234 108.122V159.084L223.376 171.214H231V115.858L218.87 103.716L211.234 108.122Z" fill="#FF7C7C"/>
<path d="M210.495 171.69C221.824 171.69 231 162.514 231 151.185C231 145.527 228.709 140.394 224.991 136.689L212.849 124.546C209.143 120.841 204.011 118.537 198.352 118.537C193.433 118.537 188.914 120.277 185.383 123.157C180.789 126.912 177.848 132.633 177.848 139.042C177.848 144.7 180.138 149.833 183.856 153.538C183.856 153.538 183.856 153.538 183.869 153.551L195.999 165.681C199.704 169.386 204.837 171.69 210.495 171.69ZM206.502 149.019C204.286 150.834 201.444 151.923 198.352 151.923C198.115 151.923 197.877 151.923 197.639 151.898C197.626 151.661 197.614 151.423 197.614 151.185C197.614 144.075 203.372 138.304 210.495 138.304C210.733 138.304 210.971 138.304 211.209 138.329C211.209 138.567 211.234 138.804 211.234 139.042C211.234 143.061 209.394 146.653 206.502 149.019Z" fill="#FF7C7C"/>
<path d="M58.6361 119.026H51V159.084H58.6361V119.026Z" fill="#0000CC"/>
<path d="M96.7793 118.537C88.3545 118.537 81.5195 125.372 81.5195 133.797V159.071H85.3376V135.224C85.3376 129.954 89.6063 125.685 94.8765 125.685C100.147 125.685 104.415 129.954 104.415 135.224V159.071H112.052V133.797C112.052 125.372 105.217 118.537 96.7918 118.537" fill="#0000CC"/>
<path d="M70.0778 118.537C61.653 118.537 54.8181 125.372 54.8181 133.797V159.071H58.6361V135.224C58.6361 129.954 62.9049 125.685 68.175 125.685C73.4452 125.685 77.714 129.954 77.714 135.224V159.071H85.3376V133.797C85.3376 125.372 78.5026 118.537 70.0778 118.537Z" fill="#0000CC"/>
<path d="M137.313 151.924C130.203 151.924 124.432 146.165 124.432 139.042C124.432 131.919 130.191 126.161 137.313 126.161C144.436 126.161 150.195 131.919 150.195 139.042C150.195 146.165 144.436 151.924 137.313 151.924ZM137.313 118.537C125.984 118.537 116.809 127.713 116.809 139.042C116.809 150.371 125.984 159.547 137.313 159.547C148.642 159.547 157.818 150.371 157.818 139.042C157.818 127.713 148.642 118.537 137.313 118.537Z" fill="#0000CC"/>
<path d="M150.195 116.935V157.169C150.195 164.279 144.424 170.05 137.313 170.05C132.118 170.05 127.662 166.97 125.621 162.552L118.999 166.37C122.367 173.067 129.302 177.686 137.313 177.686C148.642 177.686 157.818 168.51 157.818 157.181V121.354L150.195 116.948V116.935Z" fill="#0000CC"/>
<path d="M165.454 159.084H173.078V130.142L165.454 125.748V159.084Z" fill="#0000CC"/>
<path d="M198.352 151.924C191.242 151.924 185.471 146.165 185.471 139.042C185.471 131.919 191.23 126.161 198.352 126.161C205.475 126.161 211.234 131.919 211.234 139.042C211.234 146.165 205.475 151.924 198.352 151.924ZM198.352 118.537C187.023 118.537 177.848 127.713 177.848 139.042C177.848 150.371 187.023 159.547 198.352 159.547C209.681 159.547 218.857 150.371 218.857 139.042C218.857 127.713 209.681 118.537 198.352 118.537Z" fill="#0000CC"/>
<path d="M211.234 108.122V159.071H218.857V103.716L211.234 108.122Z" fill="#0000CC"/>
<path d="M159.095 102.539L150.195 106.219L173.078 119.426L180.714 115.02L159.095 102.539Z" fill="#0000CC"/>
<path d="M165.454 115.02L173.078 119.426L218.87 93L165.454 115.02Z" fill="#0000CC"/>
</svg>
