<svg width="144" height="36" viewBox="0 0 144 36" fill="none" xmlns="http://www.w3.org/2000/svg">
<g id="Group 2521">
<g id="Group 2518">
<rect id="Rectangle 1886" width="72" height="36" rx="18" fill="#FF7C7C"/>
<g id="20">
<path id="Vector" d="M43.0313 26.2386C41.7472 26.2386 40.6534 25.8892 39.75 25.1903C38.8466 24.4858 38.1563 23.4659 37.679 22.1307C37.2017 20.7898 36.9631 19.1705 36.9631 17.2727C36.9631 15.3864 37.2017 13.7756 37.679 12.4403C38.1619 11.0994 38.8551 10.0767 39.7585 9.37216C40.6676 8.66194 41.7585 8.30682 43.0313 8.30682C44.304 8.30682 45.3921 8.66194 46.2955 9.37216C47.2046 10.0767 47.8977 11.0994 48.375 12.4403C48.858 13.7756 49.0994 15.3864 49.0994 17.2727C49.0994 19.1705 48.8608 20.7898 48.3835 22.1307C47.9063 23.4659 47.2159 24.4858 46.3125 25.1903C45.4091 25.8892 44.3153 26.2386 43.0313 26.2386ZM43.0313 24.3636C44.304 24.3636 45.2926 23.75 45.9972 22.5227C46.7017 21.2955 47.054 19.5455 47.054 17.2727C47.054 15.7614 46.8921 14.4744 46.5682 13.4119C46.25 12.3494 45.7898 11.5398 45.1875 10.983C44.5909 10.4261 43.8722 10.1477 43.0313 10.1477C41.7699 10.1477 40.7841 10.7699 40.0739 12.0142C39.3636 13.2528 39.0085 15.0057 39.0085 17.2727C39.0085 18.7841 39.1676 20.0682 39.4858 21.125C39.804 22.1818 40.2614 22.9858 40.858 23.5369C41.4602 24.0881 42.1847 24.3636 43.0313 24.3636Z" fill="white"/>
<path id="Vector_2" d="M22.8068 26V24.4659L28.5682 18.1591C29.2443 17.4205 29.8011 16.7784 30.2386 16.233C30.6761 15.6818 31 15.1648 31.2102 14.6818C31.4261 14.1932 31.5341 13.6818 31.5341 13.1477C31.5341 12.5341 31.3864 12.0028 31.0909 11.554C30.8011 11.1051 30.4034 10.7585 29.8977 10.5142C29.3921 10.2699 28.8239 10.1477 28.1932 10.1477C27.5227 10.1477 26.9375 10.2869 26.4375 10.5653C25.9432 10.8381 25.5597 11.2216 25.2869 11.7159C25.0199 12.2102 24.8864 12.7898 24.8864 13.4546H22.875C22.875 12.4318 23.1108 11.5341 23.5824 10.7614C24.054 9.98864 24.696 9.38637 25.5085 8.95455C26.3267 8.52273 27.2443 8.30682 28.2614 8.30682C29.2841 8.30682 30.1903 8.52273 30.9801 8.95455C31.7699 9.38637 32.3892 9.96876 32.8381 10.7017C33.2869 11.4347 33.5114 12.25 33.5114 13.1477C33.5114 13.7898 33.3949 14.4176 33.1619 15.0313C32.9347 15.6392 32.5369 16.3182 31.9688 17.0682C31.4063 17.8125 30.625 18.7216 29.625 19.7955L25.7046 23.9886V24.125H33.8182V26H22.8068Z" fill="white"/>
</g>
</g>
<g id="Group 2519">
<rect id="Rectangle 1887" x="72" width="36" height="36" rx="18" fill="#FF7C7C"/>
<path id="2" d="M84.8068 26V24.4659L90.5682 18.1591C91.2443 17.4205 91.8011 16.7784 92.2386 16.233C92.6761 15.6818 93 15.1648 93.2102 14.6818C93.4261 14.1932 93.5341 13.6818 93.5341 13.1477C93.5341 12.5341 93.3864 12.0028 93.0909 11.554C92.8011 11.1051 92.4034 10.7585 91.8977 10.5142C91.3921 10.2699 90.8239 10.1477 90.1932 10.1477C89.5227 10.1477 88.9375 10.2869 88.4375 10.5653C87.9432 10.8381 87.5597 11.2216 87.2869 11.7159C87.0199 12.2102 86.8864 12.7898 86.8864 13.4546H84.875C84.875 12.4318 85.1108 11.5341 85.5824 10.7614C86.054 9.98864 86.696 9.38637 87.5085 8.95455C88.3267 8.52273 89.2443 8.30682 90.2614 8.30682C91.2841 8.30682 92.1903 8.52273 92.9801 8.95455C93.7699 9.38637 94.3892 9.96876 94.8381 10.7017C95.2869 11.4347 95.5114 12.25 95.5114 13.1477C95.5114 13.7898 95.3949 14.4176 95.1619 15.0313C94.9347 15.6392 94.5369 16.3182 93.9688 17.0682C93.4063 17.8125 92.625 18.7216 91.625 19.7955L87.7046 23.9886V24.125H95.8182V26H84.8068Z" fill="white"/>
</g>
<g id="Group 2520">
<rect id="Rectangle 1888" x="108" width="36" height="36" rx="18" fill="#FF7C7C"/>
<path id="5" d="M126.261 26.2387C125.261 26.2387 124.361 26.0398 123.56 25.6421C122.758 25.2443 122.116 24.6989 121.633 24.0057C121.151 23.3125 120.886 22.5227 120.841 21.6364H122.886C122.966 22.4262 123.324 23.0796 123.96 23.5966C124.602 24.108 125.369 24.3637 126.261 24.3637C126.977 24.3637 127.614 24.196 128.17 23.8608C128.733 23.5256 129.173 23.0654 129.491 22.4801C129.815 21.8892 129.977 21.2216 129.977 20.4773C129.977 19.7159 129.81 19.0369 129.474 18.4404C129.145 17.8381 128.69 17.3637 128.111 17.0171C127.531 16.6705 126.869 16.4943 126.125 16.4887C125.591 16.483 125.043 16.5654 124.48 16.7358C123.918 16.9006 123.455 17.1137 123.091 17.375L121.114 17.1364L122.17 8.54547H131.239V10.4205H123.943L123.33 15.5682H123.432C123.79 15.2841 124.239 15.0483 124.778 14.8608C125.318 14.6733 125.881 14.5796 126.466 14.5796C127.534 14.5796 128.486 14.8352 129.321 15.3466C130.162 15.8523 130.821 16.5455 131.298 17.4262C131.781 18.3068 132.023 19.3125 132.023 20.4432C132.023 21.5568 131.773 22.5512 131.273 23.4262C130.778 24.2955 130.097 24.983 129.227 25.4887C128.358 25.9887 127.369 26.2387 126.261 26.2387Z" fill="white"/>
</g>
</g>
</svg>
